<?xml version="1.0" encoding="UTF-8"?>
<svg xmlns="http://www.w3.org/2000/svg" xmlns:xlink="http://www.w3.org/1999/xlink" width="17px" height="17px" viewBox="0 0 17 17" version="1.1">
<g id="surface1">
<path style=" stroke:none;fill-rule:nonzero;fill:rgb(0%,0%,0%);fill-opacity:1;" d="M 8.5 0 C 3.804688 0 0 3.804688 0 8.5 C 0 13.195312 3.804688 17 8.5 17 C 13.195312 17 17 13.195312 17 8.5 C 16.996094 3.808594 13.191406 0.00390625 8.5 0 Z M 8.5 16.203125 C 4.246094 16.203125 0.796875 12.753906 0.796875 8.5 C 0.796875 4.246094 4.246094 0.796875 8.5 0.796875 C 12.753906 0.796875 16.203125 4.246094 16.203125 8.5 C 16.199219 12.753906 12.753906 16.199219 8.5 16.203125 Z M 8.5 16.203125 "/>
<path style=" stroke:none;fill-rule:nonzero;fill:rgb(0%,0%,0%);fill-opacity:1;" d="M 9.84375 4.765625 C 9.6875 4.609375 9.4375 4.609375 9.28125 4.765625 L 5.828125 8.21875 C 5.671875 8.375 5.671875 8.625 5.828125 8.78125 L 9.28125 12.234375 C 9.4375 12.382812 9.683594 12.375 9.835938 12.226562 C 9.984375 12.074219 9.992188 11.828125 9.84375 11.671875 L 6.671875 8.5 L 9.84375 5.328125 C 10 5.171875 10 4.921875 9.84375 4.765625 Z M 9.84375 4.765625 "/>
</g>
</svg>
