<?xml version="1.0" encoding="UTF-8"?>
<svg xmlns="http://www.w3.org/2000/svg" xmlns:xlink="http://www.w3.org/1999/xlink" width="250px" height="250px" viewBox="0 0 250 250" version="1.1">
<g id="surface1">
<path style=" stroke:none;fill-rule:nonzero;fill:rgb(69.803923%,44.705883%,7.843138%);fill-opacity:1;" d="M 245.820312 71.25 L 227.734375 77.246094 C 220.136719 54.316406 203.964844 36.632812 183.964844 26.59375 L 192.507812 9.570312 C 216.875 21.804688 236.5625 43.328125 245.820312 71.25 Z M 245.820312 71.25 "/>
<path style=" stroke:none;fill-rule:nonzero;fill:rgb(96.862745%,69.803923%,22.352941%);fill-opacity:1;" d="M 227.734375 77.246094 L 144.707031 104.746094 L 183.964844 26.59375 C 203.964844 36.640625 220.136719 54.316406 227.734375 77.246094 Z M 227.734375 77.246094 "/>
<path style=" stroke:none;fill-rule:nonzero;fill:rgb(69.803923%,44.705883%,7.843138%);fill-opacity:1;" d="M 158.507812 38.679688 L 149.960938 55.695312 C 129.960938 45.65625 106.125 43.234375 83.195312 50.828125 C 37.34375 66.023438 12.480469 115.515625 27.675781 161.367188 L 9.601562 167.363281 C -8.90625 111.523438 21.367188 51.257812 77.207031 32.753906 C 105.117188 23.507812 134.148438 26.445312 158.507812 38.679688 Z M 158.507812 38.679688 "/>
<path style=" stroke:none;fill-rule:nonzero;fill:rgb(69.803923%,44.705883%,7.843138%);fill-opacity:1;" d="M 71.445312 212.023438 L 62.910156 229.042969 L 62.898438 229.042969 C 38.546875 216.804688 18.847656 195.28125 9.601562 167.363281 L 27.6875 161.367188 C 35.273438 184.296875 51.445312 201.972656 71.445312 212.023438 Z M 71.445312 212.023438 "/>
<path style=" stroke:none;fill-rule:nonzero;fill:rgb(69.803923%,44.705883%,7.843138%);fill-opacity:1;" d="M 211.816406 100.359375 C 230.3125 156.191406 200.046875 216.464844 144.210938 234.960938 C 116.289062 244.21875 87.265625 241.269531 62.898438 229.042969 L 71.445312 212.023438 C 91.453125 222.070312 115.292969 224.492188 138.222656 216.882812 C 184.070312 201.699219 208.925781 152.207031 193.730469 106.347656 Z M 211.816406 100.359375 "/>
<path style=" stroke:none;fill-rule:nonzero;fill:rgb(96.862745%,69.803923%,22.352941%);fill-opacity:1;" d="M 193.730469 106.347656 C 208.925781 152.207031 184.082031 201.699219 138.222656 216.882812 C 115.292969 224.492188 91.453125 222.070312 71.445312 212.023438 L 110.703125 133.867188 Z M 193.730469 106.347656 "/>
<path style=" stroke:none;fill-rule:nonzero;fill:rgb(96.862745%,69.803923%,22.352941%);fill-opacity:1;" d="M 149.960938 55.695312 L 110.703125 133.867188 L 27.675781 161.367188 C 12.480469 115.515625 37.34375 66.023438 83.195312 50.828125 C 106.125 43.234375 129.960938 45.65625 149.960938 55.695312 Z M 149.960938 55.695312 "/>
<path style=" stroke:none;fill-rule:nonzero;fill:rgb(96.862745%,69.803923%,22.352941%);fill-opacity:1;" d="M 110.703125 133.867188 L 71.445312 212.023438 C 51.445312 201.972656 35.273438 184.296875 27.675781 161.367188 Z M 110.703125 133.867188 "/>
<path style=" stroke:none;fill-rule:nonzero;fill:rgb(94.901961%,29.803923%,56.078434%);fill-opacity:1;" d="M 84.179688 92.375 C 84.179688 84.0625 77.441406 77.324219 69.132812 77.324219 C 60.8125 77.324219 54.070312 84.0625 54.070312 92.375 C 54.070312 100.695312 60.8125 107.429688 69.132812 107.429688 C 77.441406 107.429688 84.179688 100.695312 84.179688 92.375 Z M 84.179688 92.375 "/>
<path style=" stroke:none;fill-rule:nonzero;fill:rgb(94.901961%,29.803923%,56.078434%);fill-opacity:1;" d="M 102.820312 186.933594 C 102.820312 178.613281 96.085938 171.875 87.773438 171.875 C 79.453125 171.875 72.714844 178.613281 72.714844 186.933594 C 72.714844 195.242188 79.453125 201.992188 87.773438 201.992188 C 96.085938 201.992188 102.820312 195.242188 102.820312 186.933594 Z M 102.820312 186.933594 "/>
<path style=" stroke:none;fill-rule:nonzero;fill:rgb(94.901961%,29.803923%,56.078434%);fill-opacity:1;" d="M 144.960938 122.507812 C 147.578125 130.398438 156.09375 134.679688 163.984375 132.070312 C 171.882812 129.453125 176.152344 120.9375 173.535156 113.039062 "/>
<path style=" stroke:none;fill-rule:nonzero;fill:rgb(94.901961%,29.803923%,56.078434%);fill-opacity:1;" d="M 178.964844 93.398438 C 176.347656 85.507812 180.625 76.992188 188.515625 74.375 C 196.40625 71.757812 204.921875 76.035156 207.539062 83.9375 "/>
<path style=" stroke:none;fill-rule:nonzero;fill:rgb(0%,0%,0%);fill-opacity:1;" d="M 213.691406 96.621094 C 212.695312 96.125 211.554688 96.046875 210.5 96.386719 L 118.976562 126.71875 L 162.234375 40.585938 C 162.351562 40.34375 162.460938 40.085938 162.53125 39.824219 C 163.117188 37.792969 162.089844 35.65625 160.15625 34.835938 C 133.789062 21.660156 103.875 19.511719 75.890625 28.789062 C 17.949219 47.988281 -13.574219 110.742188 5.625 168.679688 C 14.929688 196.75 34.601562 219.511719 61.023438 232.773438 C 61.085938 232.804688 61.132812 232.832031 61.191406 232.859375 C 76.796875 240.664062 93.652344 244.609375 110.605469 244.609375 C 122.3125 244.609375 134.082031 242.726562 145.527344 238.9375 C 203.46875 219.734375 234.980469 156.984375 215.78125 99.042969 C 215.4375 97.988281 214.6875 97.117188 213.691406 96.621094 Z M 186.914062 167.460938 L 121.601562 134.65625 L 142.753906 127.648438 C 146.242188 133.476562 152.558594 137.011719 159.265625 137.011719 C 161.269531 137.011719 163.300781 136.699219 165.304688 136.035156 C 174.003906 133.15625 179.277344 124.609375 178.390625 115.839844 L 190.984375 111.671875 C 196.152344 130.273438 194.726562 149.796875 186.914062 167.460938 Z M 34.53125 100.28125 L 99.804688 133.066406 L 30.429688 156.054688 C 25.136719 136.933594 27.011719 117.335938 34.53125 100.28125 Z M 103.5625 125.59375 L 74.316406 110.898438 C 74.601562 110.820312 74.890625 110.734375 75.1875 110.632812 C 85.253906 107.304688 90.722656 96.398438 87.390625 86.328125 C 84.054688 76.257812 73.144531 70.78125 63.078125 74.121094 C 53.007812 77.453125 47.53125 88.359375 50.867188 98.429688 C 50.96875 98.71875 51.085938 99.003906 51.191406 99.296875 L 38.289062 92.8125 C 47.46875 76.59375 62.070312 63.390625 80.578125 56.210938 Z M 65.710938 82.0625 C 66.84375 81.679688 67.988281 81.503906 69.121094 81.503906 C 73.679688 81.503906 77.9375 84.394531 79.453125 88.953125 C 80.359375 91.71875 80.148438 94.65625 78.847656 97.257812 C 77.539062 99.851562 75.304688 101.789062 72.546875 102.695312 C 69.796875 103.613281 66.84375 103.398438 64.25 102.089844 C 61.648438 100.789062 59.726562 98.554688 58.808594 95.800781 C 56.921875 90.109375 60.019531 83.945312 65.710938 82.0625 Z M 102.441406 141.007812 L 89.015625 167.734375 C 86.609375 167.578125 84.140625 167.871094 81.71875 168.671875 C 71.648438 172.011719 66.171875 182.910156 69.511719 192.976562 C 70.3125 195.398438 71.5625 197.546875 73.117188 199.382812 L 69.640625 206.320312 C 52.820312 196.816406 40.03125 182 33.054688 163.992188 Z M 98.09375 183.515625 C 99.980469 189.199219 96.882812 195.371094 91.191406 197.257812 C 88.640625 198.09375 85.996094 197.9375 83.679688 196.992188 L 93.398438 177.636719 C 95.617188 178.976562 97.265625 181.035156 98.09375 183.515625 Z M 77.453125 190.351562 C 76.53125 187.597656 76.75 184.648438 78.054688 182.050781 C 79.355469 179.453125 81.59375 177.519531 84.355469 176.609375 C 84.433594 176.582031 84.511719 176.5625 84.589844 176.542969 L 77.539062 190.585938 C 77.507812 190.507812 77.46875 190.429688 77.453125 190.351562 Z M 79.921875 204.472656 C 82.375 205.566406 85.039062 206.171875 87.78125 206.171875 C 89.785156 206.171875 91.816406 205.859375 93.820312 205.195312 C 103.886719 201.855469 109.367188 190.945312 106.035156 180.878906 C 104.460938 176.140625 101.210938 172.421875 97.15625 170.15625 L 109.914062 144.765625 L 132.898438 214.140625 C 114.296875 219.304688 94.773438 217.882812 77.109375 210.078125 Z M 117.851562 142.128906 L 183.164062 174.929688 C 173.664062 191.75 158.847656 204.539062 140.839844 211.503906 Z M 151.035156 124.902344 L 170.085938 118.59375 C 169.765625 122.832031 166.953125 126.679688 162.675781 128.09375 C 159.914062 129.015625 156.960938 128.796875 154.375 127.492188 C 153.085938 126.84375 151.953125 125.96875 151.035156 124.902344 Z M 111.503906 122.960938 L 88.515625 53.585938 C 107.117188 48.417969 126.640625 49.835938 144.304688 57.648438 Z M 110.800781 31.484375 C 125.175781 31.484375 139.460938 34.550781 152.859375 40.617188 L 148.054688 50.164062 C 128.398438 41.367188 106.609375 39.785156 85.878906 45.632812 L 82.519531 35.488281 C 91.828125 32.8125 101.328125 31.484375 110.800781 31.484375 Z M 74.578125 38.125 L 77.9375 48.273438 C 57.257812 56.171875 40.96875 70.929688 30.8125 89.054688 L 21.257812 84.257812 C 32.65625 63.691406 51.101562 46.972656 74.578125 38.125 Z M 17.507812 91.738281 L 27.050781 96.523438 C 18.574219 115.5 16.476562 137.375 22.492188 158.691406 L 12.335938 162.050781 C 5.410156 137.9375 7.8125 113.15625 17.507812 91.738281 Z M 61.085938 223.351562 C 39.734375 211.542969 23.554688 192.820312 14.960938 169.992188 L 25.117188 166.632812 C 32.792969 186.75 47.078125 203.28125 65.878906 213.796875 Z M 68.554688 227.101562 L 73.359375 217.546875 C 85.234375 222.859375 97.890625 225.554688 110.617188 225.554688 C 118.953125 225.554688 127.324219 224.40625 135.539062 222.078125 L 138.898438 232.226562 C 115.449219 238.964844 90.78125 237.179688 68.554688 227.101562 Z M 146.835938 229.601562 L 143.476562 219.453125 C 164.160156 211.542969 180.449219 196.796875 190.605469 178.671875 L 200.195312 183.484375 C 188.390625 204.835938 169.667969 221.007812 146.835938 229.601562 Z M 203.945312 176.015625 L 194.355469 171.191406 C 202.832031 152.226562 204.929688 130.351562 198.925781 109.03125 L 209.082031 105.671875 C 215.820312 129.109375 214.023438 153.789062 203.945312 176.015625 Z M 203.945312 176.015625 "/>
<path style=" stroke:none;fill-rule:nonzero;fill:rgb(0%,0%,0%);fill-opacity:1;" d="M 249.785156 69.929688 C 240.488281 41.867188 220.8125 19.101562 194.382812 5.828125 C 193.4375 5.351562 192.324219 5.265625 191.308594 5.566406 C 190.203125 5.898438 189.289062 6.671875 188.769531 7.695312 L 140.96875 102.871094 C 140.449219 103.90625 140.390625 105.109375 140.789062 106.191406 C 141.40625 107.882812 143.007812 108.9375 144.707031 108.9375 C 145.148438 108.9375 145.585938 108.867188 146.023438 108.71875 L 247.128906 75.214844 C 249.328125 74.492188 250.515625 72.128906 249.785156 69.929688 Z M 185.78125 32.296875 C 202.585938 41.796875 215.382812 56.601562 222.351562 74.617188 L 209.757812 78.789062 C 205.234375 71.230469 195.898438 67.519531 187.195312 70.410156 C 178.496094 73.289062 173.234375 81.835938 174.121094 90.59375 L 152.96875 97.609375 Z M 201.453125 81.542969 L 182.402344 87.851562 C 182.507812 86.453125 182.890625 85.078125 183.535156 83.789062 C 184.835938 81.191406 187.070312 79.257812 189.835938 78.351562 C 194.109375 76.921875 198.664062 78.328125 201.453125 81.542969 Z M 230.292969 71.984375 C 222.617188 51.855469 208.328125 35.332031 189.53125 24.8125 L 194.335938 15.265625 C 215.683594 27.0625 231.867188 45.789062 240.449219 68.625 Z M 230.292969 71.984375 "/>
<path style=" stroke:none;fill-rule:nonzero;fill:rgb(0%,0%,0%);fill-opacity:1;" d="M 124.023438 71.367188 L 113.457031 66.054688 C 111.398438 65.019531 108.875 65.851562 107.84375 67.921875 C 106.804688 69.980469 107.636719 72.5 109.695312 73.535156 L 120.273438 78.835938 C 120.867188 79.140625 121.515625 79.289062 122.148438 79.289062 C 123.671875 79.289062 125.15625 78.445312 125.890625 76.984375 C 126.921875 74.921875 126.09375 72.402344 124.023438 71.367188 Z M 124.023438 71.367188 "/>
<path style=" stroke:none;fill-rule:nonzero;fill:rgb(0%,0%,0%);fill-opacity:1;" d="M 147.96875 170.617188 C 147.726562 168.320312 145.664062 166.660156 143.367188 166.90625 C 141.0625 167.148438 139.40625 169.210938 139.648438 171.503906 L 140.90625 183.261719 C 141.132812 185.410156 142.949219 187 145.058594 187 C 145.203125 187 145.359375 186.992188 145.507812 186.984375 C 147.804688 186.738281 149.472656 184.679688 149.21875 182.382812 Z M 147.96875 170.617188 "/>
<path style=" stroke:none;fill-rule:nonzero;fill:rgb(0%,0%,0%);fill-opacity:1;" d="M 55.734375 120.304688 C 53.457031 119.921875 51.296875 121.464844 50.917969 123.742188 L 48.976562 135.410156 C 48.601562 137.6875 50.136719 139.84375 52.421875 140.226562 C 52.648438 140.265625 52.882812 140.28125 53.105469 140.28125 C 55.117188 140.28125 56.894531 138.828125 57.226562 136.777344 L 59.171875 125.117188 C 59.550781 122.832031 58.007812 120.683594 55.734375 120.304688 Z M 55.734375 120.304688 "/>
<path style=" stroke:none;fill-rule:nonzero;fill:rgb(0%,0%,0%);fill-opacity:1;" d="M 170.957031 140.136719 C 170.253906 142.335938 171.476562 144.6875 173.671875 145.390625 L 184.941406 148.976562 C 185.359375 149.109375 185.789062 149.179688 186.210938 149.179688 C 187.988281 149.179688 189.628906 148.046875 190.195312 146.257812 C 190.898438 144.0625 189.679688 141.710938 187.480469 141.007812 L 176.210938 137.421875 C 174.015625 136.71875 171.660156 137.9375 170.957031 140.136719 Z M 170.957031 140.136719 "/>
<path style=" stroke:none;fill-rule:nonzero;fill:rgb(0%,0%,0%);fill-opacity:1;" d="M 63.4375 172.625 C 65.421875 171.445312 66.0625 168.875 64.882812 166.894531 C 63.691406 164.914062 61.125 164.257812 59.140625 165.449219 L 48.992188 171.515625 C 47.011719 172.703125 46.359375 175.273438 47.546875 177.257812 C 48.328125 178.5625 49.71875 179.289062 51.140625 179.289062 C 51.875 179.289062 52.609375 179.101562 53.28125 178.703125 Z M 63.4375 172.625 "/>
<path style=" stroke:none;fill-rule:nonzero;fill:rgb(0%,0%,0%);fill-opacity:1;" d="M 193.117188 54.523438 C 193.117188 52.207031 191.242188 50.332031 188.925781 50.332031 C 186.621094 50.332031 184.746094 52.207031 184.746094 54.523438 C 184.746094 56.828125 186.621094 58.703125 188.925781 58.703125 C 191.242188 58.703125 193.117188 56.828125 193.117188 54.523438 Z M 193.117188 54.523438 "/>
<path style=" stroke:none;fill-rule:nonzero;fill:rgb(0%,0%,0%);fill-opacity:1;" d="M 117.84375 89.375 C 117.84375 87.0625 115.96875 85.1875 113.664062 85.1875 C 111.347656 85.1875 109.484375 87.0625 109.484375 89.375 C 109.484375 91.679688 111.347656 93.554688 113.664062 93.554688 C 115.96875 93.554688 117.84375 91.679688 117.84375 89.375 Z M 117.84375 89.375 "/>
<path style=" stroke:none;fill-rule:nonzero;fill:rgb(0%,0%,0%);fill-opacity:1;" d="M 44.53125 115.421875 C 44.53125 113.117188 42.65625 111.242188 40.351562 111.242188 C 38.039062 111.242188 36.171875 113.117188 36.171875 115.421875 C 36.171875 117.734375 38.039062 119.609375 40.351562 119.609375 C 42.65625 119.609375 44.53125 117.734375 44.53125 115.421875 Z M 44.53125 115.421875 "/>
<path style=" stroke:none;fill-rule:nonzero;fill:rgb(0%,0%,0%);fill-opacity:1;" d="M 75.96875 133.203125 C 75.96875 130.898438 74.101562 129.023438 71.789062 129.023438 C 69.484375 129.023438 67.609375 130.898438 67.609375 133.203125 C 67.609375 135.515625 69.484375 137.382812 71.789062 137.382812 C 74.101562 137.382812 75.96875 135.515625 75.96875 133.203125 Z M 75.96875 133.203125 "/>
<path style=" stroke:none;fill-rule:nonzero;fill:rgb(0%,0%,0%);fill-opacity:1;" d="M 121.347656 200.996094 C 121.347656 198.679688 119.472656 196.816406 117.15625 196.816406 C 114.851562 196.816406 112.976562 198.679688 112.976562 200.996094 C 112.976562 203.3125 114.851562 205.175781 117.15625 205.175781 C 119.472656 205.175781 121.347656 203.3125 121.347656 200.996094 Z M 121.347656 200.996094 "/>
<path style=" stroke:none;fill-rule:nonzero;fill:rgb(0%,0%,0%);fill-opacity:1;" d="M 170.046875 177.804688 C 170.046875 175.5 168.183594 173.625 165.867188 173.625 C 163.5625 173.625 161.6875 175.5 161.6875 177.804688 C 161.6875 180.117188 163.5625 181.984375 165.867188 181.984375 C 168.183594 181.984375 170.046875 180.117188 170.046875 177.804688 Z M 170.046875 177.804688 "/>
</g>
</svg>
